<?xml version="1.0" encoding="UTF-8"?>
<svg id="Layer_2" data-name="Layer 2" xmlns="http://www.w3.org/2000/svg" viewBox="0 0 638.16 147.93">
  <defs>
    <style>
      .cls-1 {
        fill: #db1e3d;
      }

      .cls-2 {
        fill: #31c4f3;
      }

      .cls-3 {
        fill: #fff;
      }
    </style>
  </defs>
  <g id="Layer_1-2" data-name="Layer 1">
    <g>
      <g>
        <path class="cls-3" d="M266.81,41.82c-17.75,0-32.14,14.39-32.14,32.14s14.39,32.14,32.14,32.14,32.14-14.39,32.14-32.14-14.39-32.14-32.14-32.14ZM266.81,100.94c-14.9,0-26.98-12.08-26.98-26.98s12.08-26.98,26.98-26.98,26.98,12.08,26.98,26.98-12.08,26.98-26.98,26.98Z"/>
        <path class="cls-3" d="M633,41.82v14.66c-5.73-8.82-15.67-14.66-26.98-14.66-17.75,0-32.14,14.39-32.14,32.14s14.39,32.14,32.14,32.14c11.31,0,21.25-5.84,26.98-14.66v14.66h5.16V41.82h-5.16ZM606.02,100.94c-14.9,0-26.98-12.08-26.98-26.98s12.08-26.98,26.98-26.98,26.98,12.08,26.98,26.98-12.08,26.98-26.98,26.98Z"/>
        <path class="cls-3" d="M409.77,64.99v9.38c-3.66-5.64-10.02-9.38-17.25-9.38-11.35,0-20.55,9.2-20.55,20.55s9.2,20.55,20.55,20.55c7.23,0,13.59-3.73,17.25-9.38v9.38h3.3v-41.1h-3.3ZM392.52,102.78c-9.53,0-17.25-7.72-17.25-17.25s7.72-17.25,17.25-17.25,17.25,7.72,17.25,17.25-7.72,17.25-17.25,17.25Z"/>
        <path class="cls-3" d="M342.45,94.38l2.39,2.39c-.78,1.19-1.67,2.29-2.67,3.29-3.72,3.72-8.86,6.02-14.53,6.02-11.35,0-20.55-9.2-20.55-20.55s9.2-20.55,20.55-20.55c5.67,0,10.81,2.3,14.53,6.02,1,1,1.9,2.1,2.67,3.29l-2.39,2.39c-.73-1.23-1.61-2.35-2.62-3.35-3.12-3.12-7.43-5.05-12.2-5.05-9.53,0-17.25,7.72-17.25,17.25s7.72,17.25,17.25,17.25c4.76,0,9.07-1.93,12.2-5.05,1-1,1.88-2.13,2.61-3.35Z"/>
        <path class="cls-3" d="M542.23,64.99v9.38c-3.66-5.64-10.02-9.38-17.25-9.38-11.35,0-20.55,9.2-20.55,20.55s9.2,20.55,20.55,20.55c7.23,0,13.59-3.73,17.25-9.38v9.38h3.3v-41.1h-3.3ZM524.98,102.78c-9.53,0-17.25-7.72-17.25-17.25s7.72-17.25,17.25-17.25,17.25,7.72,17.25,17.25-7.72,17.25-17.25,17.25Z"/>
        <polygon class="cls-3" points="365.05 83.89 365.05 87.19 360.06 87.19 360.06 106.08 356.76 106.08 356.76 87.19 351.76 87.19 351.76 83.89 356.76 83.89 356.76 64.99 360.06 64.99 360.06 83.89 365.05 83.89"/>
        <path class="cls-3" d="M565.74,72.18v3.3h-7.44c-1.41,0-2.55,1.14-2.55,2.55v28.06h-3.3v-41.1h3.3v7.19h9.99Z"/>
        <polygon class="cls-3" points="495.18 65.06 497.51 67.39 458.8 106.11 419.99 67.3 422.32 64.97 458.8 101.44 495.18 65.06"/>
      </g>
      <path class="cls-2" d="M147.93,73.96l-26.1,26.11-16.9-16.9,9.2-9.21-35.92-35.92c-2.34-2.34-6.14-2.34-8.48,0l-31.68,31.68c-2.34,2.34-2.34,6.14,0,8.49l35.92,35.92,10.35-10.34,16.9,16.9-27.25,27.25L0,73.96,62.66,11.31c6.25-6.25,16.37-6.25,22.62,0l19.49,19.49.15.15,16.91,16.91,1.52,1.52,24.58,24.58Z"/>
      <path class="cls-1" d="M209.84,73.96l-62.65,62.65c-6.24,6.25-16.38,6.25-22.62.01l-19.65-19.65-16.9-16.9-26.11-26.11,25.51-25.5.6-.61,16.91,16.91-9.21,9.2,35.92,35.92c2.34,2.34,6.14,2.34,8.48,0l31.68-31.68c2.34-2.34,2.34-6.14,0-8.49l-35.92-35.92-10.35,10.36-16.9-16.91L135.88,0l73.96,73.96Z"/>
    </g>
  </g>
</svg>