<?xml version="1.0" encoding="UTF-8"?>
<svg id="Layer_2" data-name="Layer 2" xmlns="http://www.w3.org/2000/svg" viewBox="0 0 817.3 147.93">
  <defs>
    <style>
      .cls-1 {
        fill: #db1e3d;
      }

      .cls-2 {
        fill: #31c4f3;
      }

      .cls-3 {
        fill: #1b1f50;
      }
    </style>
  </defs>
  <g id="Layer_1-2" data-name="Layer 1">
    <g>
      <g>
        <path class="cls-3" d="M282.88,27.71c-25.54,0-46.25,20.71-46.25,46.25s20.71,46.25,46.25,46.25,46.25-20.71,46.25-46.25-20.71-46.25-46.25-46.25ZM282.88,112.79c-21.44,0-38.82-17.38-38.82-38.82s17.38-38.83,38.82-38.83,38.83,17.39,38.83,38.83-17.39,38.82-38.83,38.82Z"/>
        <path class="cls-3" d="M809.87,27.71v21.1c-8.25-12.7-22.55-21.1-38.83-21.1-25.54,0-46.25,20.71-46.25,46.25s20.71,46.25,46.25,46.25c16.27,0,30.58-8.4,38.83-21.1v21.1h7.43V27.71h-7.43ZM771.04,112.79c-21.44,0-38.82-17.38-38.82-38.82s17.38-38.83,38.82-38.83,38.83,17.39,38.83,38.83-17.39,38.82-38.83,38.82Z"/>
        <path class="cls-3" d="M488.62,61.05v13.49c-5.27-8.12-14.42-13.49-24.82-13.49-16.33,0-29.57,13.24-29.57,29.57s13.24,29.57,29.57,29.57c10.4,0,19.55-5.37,24.82-13.5v13.5h4.75v-59.14h-4.75ZM463.8,115.44c-13.71,0-24.82-11.11-24.82-24.82s11.11-24.82,24.82-24.82,24.82,11.12,24.82,24.82-11.11,24.82-24.82,24.82Z"/>
        <path class="cls-3" d="M391.73,103.35l3.45,3.45c-1.12,1.71-2.41,3.3-3.85,4.74-5.35,5.35-12.75,8.66-20.91,8.66-16.33,0-29.57-13.24-29.57-29.57s13.24-29.57,29.57-29.57c8.16,0,15.56,3.31,20.91,8.66,1.44,1.44,2.73,3.03,3.85,4.74l-3.44,3.45c-1.05-1.76-2.32-3.38-3.76-4.83-4.49-4.49-10.7-7.27-17.55-7.27-13.71,0-24.82,11.11-24.82,24.82s11.11,24.82,24.82,24.82c6.85,0,13.06-2.78,17.55-7.27,1.44-1.44,2.71-3.06,3.76-4.82Z"/>
        <path class="cls-3" d="M679.24,61.05v13.49c-5.27-8.12-14.42-13.49-24.82-13.49-16.33,0-29.57,13.24-29.57,29.57s13.24,29.57,29.57,29.57c10.4,0,19.55-5.37,24.82-13.5v13.5h4.75v-59.14h-4.75ZM654.42,115.44c-13.71,0-24.82-11.11-24.82-24.82s11.11-24.82,24.82-24.82,24.82,11.12,24.82,24.82-11.11,24.82-24.82,24.82Z"/>
        <polygon class="cls-3" points="424.27 88.24 424.27 92.99 417.08 92.99 417.08 120.19 412.33 120.19 412.33 92.99 405.14 92.99 405.14 88.24 412.33 88.24 412.33 61.05 417.08 61.05 417.08 88.24 424.27 88.24"/>
        <path class="cls-1" d="M713.08,71.39v4.75h-10.71c-2.03,0-3.67,1.64-3.67,3.67v40.37h-4.75v-59.14h4.75v10.35h14.38Z"/>
        <polygon class="cls-3" points="611.53 61.15 614.89 64.51 559.17 120.22 503.33 64.37 506.68 61.02 559.17 113.5 611.53 61.15"/>
      </g>
      <g>
        <path class="cls-2" d="M147.93,73.96l-26.1,26.11-16.9-16.9,9.2-9.21-35.92-35.92c-2.34-2.34-6.14-2.34-8.48,0l-31.68,31.68c-2.34,2.34-2.34,6.14,0,8.49l35.92,35.92,10.35-10.34,16.9,16.9-27.25,27.25L0,73.96,62.66,11.31c6.25-6.25,16.37-6.25,22.62,0l19.49,19.49.15.15,16.91,16.91,1.52,1.52,24.58,24.58Z"/>
        <path class="cls-1" d="M209.84,73.96l-62.65,62.65c-6.24,6.25-16.38,6.25-22.62.01l-19.65-19.65-16.9-16.9-26.11-26.11,25.51-25.5.6-.61,16.91,16.91-9.21,9.2,35.92,35.92c2.34,2.34,6.14,2.34,8.48,0l31.68-31.68c2.34-2.34,2.34-6.14,0-8.49l-35.92-35.92-10.35,10.36-16.9-16.91L135.88,0l73.96,73.96Z"/>
      </g>
    </g>
  </g>
</svg>